<svg width="112" height="32" viewBox="0 0 112 32" fill="none" xmlns="http://www.w3.org/2000/svg">
<path fill-rule="evenodd" clip-rule="evenodd" d="M59.9018 0.121058C58.9171 0.0583074 57.9295 0.0179659 56.9392 0.000156511C56.4014 -0.00951533 55.9578 0.430291 55.9484 0.982491C55.9389 1.53469 56.3673 1.99018 56.9051 1.99985C57.8665 2.01714 58.8253 2.0563 59.7812 2.11722C60.318 2.15143 60.7802 1.73231 60.8135 1.18108C60.8468 0.62986 60.4387 0.15527 59.9018 0.121058ZM52.9706 0.0495017C53.508 0.026427 53.9618 0.455045 53.9843 1.00685C54.0068 1.55865 53.5893 2.02468 53.0519 2.04776C52.0915 2.08899 51.1339 2.15212 50.1796 2.23702C49.6438 2.28469 49.1717 1.87729 49.1253 1.32706C49.0789 0.77684 49.4756 0.292151 50.0115 0.244481C50.9947 0.157021 51.9812 0.0919831 52.9706 0.0495017ZM63.8637 0.496339L63.7501 0.488818L63.6389 0.494637C63.1996 0.54372 62.8346 0.897282 62.7784 1.36715C62.7129 1.91532 63.0926 2.41422 63.6265 2.48146C64.5799 2.60154 65.5295 2.74347 66.4748 2.90706C67.0052 2.99886 67.5076 2.63179 67.597 2.08719C67.6864 1.54258 67.3289 1.02668 66.7985 0.934884C65.8245 0.766309 64.8461 0.620071 63.8637 0.496339ZM47.1834 1.56009C47.2618 2.10647 46.894 2.61468 46.3619 2.69521C45.4116 2.83902 44.4655 3.00461 43.5241 3.19183C42.996 3.29684 42.485 2.94242 42.3827 2.40021C42.2805 1.858 42.6257 1.33332 43.1537 1.22831C44.1238 1.0354 45.0987 0.864765 46.0779 0.716586C46.61 0.636056 47.1049 1.0137 47.1834 1.56009ZM73.5654 2.48521C72.6132 2.21251 71.6551 1.96171 70.6916 1.73303C70.1676 1.60865 69.6445 1.94404 69.5234 2.48214C69.4023 3.02023 69.7289 3.55728 70.253 3.68165C71.188 3.90359 72.1179 4.147 73.0421 4.41168C73.5602 4.56006 74.0974 4.24909 74.2419 3.71711C74.3864 3.18513 74.0835 2.63359 73.5654 2.48521ZM40.478 2.84021C40.6117 3.37515 40.2978 3.92012 39.7768 4.05742C38.8471 4.30243 37.9229 4.5688 37.0048 4.85632C36.4903 5.01742 35.946 4.71978 35.7891 4.19152C35.6322 3.66326 35.9221 3.10441 36.4366 2.9433C37.3825 2.64709 38.3347 2.37265 39.2925 2.12021C39.8135 1.98291 40.3443 2.30526 40.478 2.84021ZM80.1 4.73754C79.1798 4.36508 78.2523 4.01377 77.3179 3.6839C76.8092 3.50433 76.2551 3.78214 76.0802 4.30442C75.9053 4.8267 76.1759 5.39566 76.6846 5.57523C77.5917 5.89548 78.4922 6.23656 79.3857 6.59818C79.8861 6.80073 80.4516 6.5484 80.6489 6.0346C80.8462 5.5208 80.6004 4.94008 80.1 4.73754ZM33.9273 4.83757C34.1145 5.3553 33.8576 5.93088 33.3534 6.12316C32.4546 6.46589 31.5628 6.82922 30.6785 7.21288C30.183 7.42783 29.6116 7.18966 29.4023 6.68092C29.193 6.17218 29.4249 5.58552 29.9204 5.37057C30.8311 4.97547 31.7496 4.60128 32.6752 4.24829C33.1794 4.05601 33.74 4.31984 33.9273 4.83757ZM86.416 7.6876C85.5379 7.22047 84.6509 6.77344 83.7555 6.34683C83.2676 6.11435 82.6886 6.33201 82.4622 6.83298C82.2357 7.33395 82.4477 7.92853 82.9356 8.16101C83.8053 8.57539 84.6669 9.00964 85.52 9.46344C85.9976 9.71749 86.5853 9.5259 86.8328 9.03552C87.0802 8.54514 86.8936 7.94165 86.416 7.6876ZM27.5968 7.52964C27.8349 8.02484 27.637 8.62451 27.1547 8.86903C26.2951 9.30488 25.4438 9.76033 24.6014 10.2351C24.1299 10.5008 23.5378 10.3237 23.279 9.83956C23.0203 9.35541 23.1927 8.74751 23.6642 8.48178C24.5312 7.99317 25.4074 7.52438 26.2923 7.07574C26.7746 6.83122 27.3586 7.03444 27.5968 7.52964ZM92.385 11.2634C91.5566 10.7087 90.718 10.1727 89.8696 9.656C89.4069 9.37424 88.8095 9.53091 88.5351 10.0059C88.2606 10.4809 88.4132 11.0944 88.8758 11.3762C89.7005 11.8784 90.5157 12.3993 91.321 12.9386C91.7715 13.2403 92.3749 13.1099 92.6688 12.6473C92.9626 12.1847 92.8356 11.5651 92.385 11.2634ZM21.6304 10.8322C21.9154 11.3006 21.7767 11.9175 21.3205 12.2102C20.5075 12.7319 19.7041 13.272 18.911 13.8301C18.4673 14.1423 17.8611 14.0261 17.557 13.5705C17.253 13.115 17.3661 12.4926 17.8098 12.1804C18.6256 11.6063 19.4519 11.0508 20.2884 10.5141C20.7445 10.2214 21.3453 10.3639 21.6304 10.8322ZM97.9953 15.4375C97.2235 14.8022 96.4401 14.1842 95.6455 13.5841C95.2123 13.2568 94.6026 13.3522 94.2839 13.7971C93.9652 14.242 94.0581 14.8679 94.4913 15.1952C95.2641 15.7788 96.0261 16.3799 96.7769 16.9979C97.1966 17.3434 97.8095 17.2741 98.146 16.8432C98.4824 16.4123 98.415 15.783 97.9953 15.4375ZM15.9672 14.7581C16.2956 15.1955 16.2166 15.8234 15.7906 16.1606C15.031 16.762 14.2824 17.3804 13.5454 18.0154C13.1333 18.3704 12.519 18.3152 12.1733 17.8921C11.8276 17.469 11.8813 16.8383 12.2933 16.4833C13.0509 15.8306 13.8204 15.1949 14.6013 14.5768C15.0272 14.2395 15.6388 14.3207 15.9672 14.7581ZM106.651 15.8002C107.085 15.6837 107.53 15.9511 107.643 16.3973L111.033 29.7355C111.078 29.9103 111.066 30.0953 110.999 30.2625C110.829 30.6894 110.354 30.8939 109.938 30.7194L97.512 25.5012C97.3952 25.4521 97.291 25.3758 97.2079 25.2782C96.912 24.9311 96.9463 24.4035 97.2843 24.0998L100.996 20.7642C100.571 20.3534 100.142 19.9483 99.7076 19.5491C99.307 19.1806 99.2732 18.5483 99.632 18.137C99.9909 17.7256 100.607 17.6909 101.007 18.0594C101.5 18.5126 101.987 18.9731 102.469 19.4409L106.32 15.9798C106.415 15.8944 106.528 15.8329 106.651 15.8002ZM5.861 24.2152C6.264 24.581 6.3019 25.213 5.94565 25.6268L5.83305 25.7579C5.47775 26.1725 4.86236 26.2129 4.45853 25.8481C4.05471 25.4833 4.01537 24.8514 4.37066 24.4368L4.48629 24.3022C4.84253 23.8884 5.45801 23.8495 5.861 24.2152ZM10.6515 20.651C11.044 20.2733 11.064 19.6405 10.6962 19.2375C10.3285 18.8345 9.71213 18.8139 9.31964 19.1915C8.60044 19.8835 7.89386 20.5914 7.20035 21.3148C6.82302 21.7083 6.82786 22.3415 7.21117 22.7289C7.59449 23.1164 8.21111 23.1114 8.58845 22.7178C9.26359 22.0136 9.95142 21.3245 10.6515 20.651Z" fill="#E3E7EB"/>
<path fill-rule="evenodd" clip-rule="evenodd" d="M5.84348 31.2656C9.07074 31.2656 11.687 28.5793 11.687 25.2656C11.687 21.9519 9.07074 19.2656 5.84348 19.2656C2.61621 19.2656 0 21.9519 0 25.2656C0 28.5793 2.61621 31.2656 5.84348 31.2656Z" fill="#E3E7EB"/>
</svg>
