<svg width="80" height="80" viewBox="0 0 80 80" fill="none" xmlns="http://www.w3.org/2000/svg">
<path d="M73.5309 74.2458C74.2518 75.1848 75.0569 76.1045 75.9121 77.0258C76.8922 78.2094 76.0514 80 74.5142 80H4.81918C3.28183 80 2.44108 78.2094 3.42128 77.0258C4.27984 76.1012 5.08823 75.1817 5.80735 74.2458C7.83386 71.61 9.17518 68.8397 9.04558 65.4056V26.3456C9.04558 21.6503 7.40458 17.1023 4.40616 13.4886C3.49741 12.3941 3.00012 11.0162 3.00012 9.59469V2.06922C2.99997 0.926094 3.92654 0 5.07025 0H74.2632C75.4069 0 76.3335 0.926094 76.3335 2.06922V9.59469C76.3335 11.0162 75.8362 12.3941 74.929 13.4886C71.929 17.1023 70.288 21.6503 70.288 26.3456L70.2878 65.4056C70.1598 68.8234 71.5093 71.6116 73.5309 74.2458Z" fill="#EAEDF5"/>
<path d="M74.2631 0C75.4068 0 76.3333 0.926094 76.3333 2.06922V9.39391L76.0677 9.59469H8.13359C8.13359 10.9414 8.57991 12.2489 9.39958 13.3135L9.53963 13.4886C12.4631 17.012 14.0962 21.4235 14.176 25.9938L14.1791 26.3456V65.4056C14.2602 67.5655 13.7599 69.4627 12.8734 71.2286C12.1956 72.5788 13.1149 74.1643 14.5979 74.2428L14.7131 74.2458H73.5313C74.2521 75.1848 75.0572 76.1045 75.9125 77.0258C76.8692 78.1812 76.0908 79.9151 74.623 79.997L74.5144 80H4.81922C3.28186 80 2.44112 78.2094 3.42116 77.0259L3.80954 76.6042C6.76218 73.3683 9.11328 70.0651 9.05285 65.6925L9.04547 65.4058V26.3456C9.04547 21.6503 7.40447 17.1023 4.40448 13.4886C3.54769 12.4549 3.05652 11.1685 3.00459 9.83117L3 9.59469V2.06922C3 1.83277 3.03968 1.60559 3.11274 1.39397L3.15198 1.28935C3.45996 0.532972 4.20264 0 5.07028 0H74.2631Z" fill="#C9CCD7"/>
<path fill-rule="evenodd" clip-rule="evenodd" d="M19.8034 17.7513C19.8034 17.2534 20.2707 16.7873 21.4147 16.7873C22.2094 16.7873 22.6367 17.0082 22.9774 17.1842C23.2031 17.3009 23.3907 17.3978 23.6219 17.3978C24.3309 17.3978 24.6209 16.5142 24.6209 16.0803C24.6209 14.8273 22.2685 14.6667 21.4147 14.6667C19.4005 14.6667 17.2901 15.5825 17.2901 17.9922C17.2901 20.179 19.0184 20.9795 20.4642 21.6492C21.5039 22.1308 22.3975 22.5447 22.3975 23.3577C22.3975 24.1288 21.5758 24.4179 20.8345 24.4179C19.9587 24.4179 19.4297 24.0118 18.9901 23.6743C18.6776 23.4343 18.4103 23.229 18.0956 23.229C17.4833 23.229 17 24.0322 17 24.5784C17 25.6386 18.7722 26.6667 20.883 26.6667C23.2192 26.6667 24.9108 25.4135 24.9108 23.1002C24.9108 20.6171 22.9885 19.7722 21.5026 19.1191C20.5664 18.7076 19.8034 18.3722 19.8034 17.7513ZM33.1281 14.7632C32.4998 14.7632 31.8714 14.9881 31.8714 15.5181V20.9801L29.2614 16.016C28.6491 14.8433 28.3108 14.7628 27.4086 14.7628C26.7803 14.7628 26.1519 15.0039 26.1519 15.534V25.7353C26.1519 26.2493 26.7803 26.5064 27.4086 26.5064C28.0368 26.5064 28.6654 26.2495 28.6654 25.7353V20.2731L31.7266 25.8316C32.0327 26.3938 32.5482 26.5062 33.1283 26.5062C33.7566 26.5062 34.3851 26.2493 34.3851 25.7351V15.5185C34.3848 14.9883 33.7563 14.7632 33.1281 14.7632ZM41.6353 15.5021C41.458 14.94 40.7329 14.6667 39.992 14.6667C39.251 14.6667 38.5258 14.94 38.3486 15.5021L35.3518 25.3017L35.3504 25.3076C35.3348 25.3699 35.3194 25.4316 35.3194 25.4785C35.3194 26.0729 36.2379 26.5067 36.9305 26.5067C37.3334 26.5067 37.6558 26.3783 37.7522 26.0409L38.3 24.0327H41.6995L42.2473 26.0409C42.344 26.3783 42.6662 26.5067 43.069 26.5067C43.7616 26.5067 44.6801 26.073 44.6801 25.4785C44.6801 25.4304 44.664 25.3665 44.6478 25.3024L44.6478 25.3024L44.6476 25.3017L41.6353 15.5021ZM38.8159 22.105L39.992 17.7996L41.1681 22.105H38.8159ZM49.4497 16.9481C50.8192 16.9481 50.8677 17.9764 50.8837 18.3939C50.9161 18.9725 51.4636 19.1489 52.1404 19.1489C52.9943 19.1489 53.3972 18.924 53.3972 17.96C53.3972 15.9197 51.6571 14.7632 49.3531 14.7632C47.2424 14.7632 45.4864 15.7914 45.4864 18.5544V22.8115C45.4864 25.5746 47.2425 26.6027 49.3531 26.6027C51.6573 26.6027 53.3972 25.3817 53.3972 23.2452C53.3972 22.2813 52.9943 22.0563 52.1243 22.0563C51.4799 22.0563 50.932 22.217 50.8839 22.8113C50.8354 23.4378 50.755 24.4178 49.4661 24.4178C48.5316 24.4178 47.9999 23.9037 47.9999 22.8113V18.5542C47.9999 17.462 48.5313 16.9481 49.4497 16.9481ZM59.536 19.8397L62.8712 24.9323C62.9519 25.0608 62.9998 25.2054 63 25.35C63 25.9767 62.2106 26.6032 61.4855 26.6032C61.1473 26.6032 60.8249 26.4748 60.6155 26.1373L57.8605 21.9604L57.1839 22.8278V25.7356C57.1839 26.2498 56.5552 26.5067 55.9271 26.5067C55.2988 26.5067 54.6704 26.2496 54.6704 25.7356V15.5185C54.6704 14.9885 55.2989 14.7635 55.9271 14.7635C56.5554 14.7635 57.1839 14.9883 57.1839 15.5185V19.3739L60.1966 15.1166C60.3739 14.8596 60.5995 14.7632 60.8572 14.7632C61.5015 14.7632 62.3394 15.4218 62.3394 16.0483C62.3394 16.177 62.3072 16.3536 62.1782 16.5304L59.536 19.8397Z" fill="#8FA0B2"/>
<path d="M5.06922 0C3.92609 0 3 0.926094 3 2.06922V9.59469H8.13078V2.06922C8.13094 0.926094 9.05703 0 10.2 0H5.06922Z" fill="#B4B8C6"/>
<path fill-rule="evenodd" clip-rule="evenodd" d="M17.6637 47.2226L25.3814 49.0737L33.099 50.9246C33.7462 51.0799 34.3189 50.4762 34.1296 49.8379L31.8739 42.2287L29.6181 34.6194C29.4287 33.9812 28.6195 33.7871 28.1615 34.2701L22.6998 40.0284L17.2381 45.7866C16.7798 46.2696 17.0164 47.0673 17.6637 47.2226ZM28.0307 41.4216C28.0307 41.9572 27.5966 42.3913 27.061 42.3913C26.5255 42.3913 26.0914 41.9572 26.0914 41.4216C26.0914 40.8861 26.5255 40.4519 27.061 40.4519C27.5966 40.4519 28.0307 40.8861 28.0307 41.4216ZM25.1585 44.4363C25.1585 44.9719 24.7244 45.406 24.1889 45.406C23.6533 45.406 23.2192 44.9719 23.2192 44.4363C23.2192 43.9008 23.6533 43.4666 24.1889 43.4666C24.7244 43.4666 25.1585 43.9008 25.1585 44.4363ZM28.386 46.279C28.9215 46.279 29.3557 45.8448 29.3557 45.3093C29.3557 44.7737 28.9215 44.3396 28.386 44.3396C27.8504 44.3396 27.4163 44.7737 27.4163 45.3093C27.4163 45.8448 27.8504 46.279 28.386 46.279ZM58.9956 64.7556L49.7401 67.8877C48.9637 68.1505 48.1941 67.4742 48.3548 66.6706L50.2699 57.0892L52.1851 47.5078C52.3457 46.7041 53.3162 46.3758 53.9318 46.9167L61.2718 53.3661L68.6118 59.8155C69.2276 60.3564 69.0266 61.3611 68.2504 61.6236L58.9956 64.7556ZM55.4868 57.3636C56.0223 57.3636 56.4565 56.9294 56.4565 56.3939C56.4565 55.8584 56.0223 55.4242 55.4868 55.4242C54.9513 55.4242 54.5171 55.8584 54.5171 56.3939C54.5171 56.9294 54.9513 57.3636 55.4868 57.3636ZM55.5873 61.5262C56.1228 61.5262 56.557 61.0921 56.557 60.5566C56.557 60.021 56.1228 59.5869 55.5873 59.5869C55.0517 59.5869 54.6176 60.021 54.6176 60.5566C54.6176 61.0921 55.0517 61.5262 55.5873 61.5262ZM60.7649 58.4372C60.7649 58.9727 60.3308 59.4069 59.7952 59.4069C59.2597 59.4069 58.8256 58.9727 58.8256 58.4372C58.8256 57.9016 59.2597 57.4675 59.7952 57.4675C60.3308 57.4675 60.7649 57.9016 60.7649 58.4372ZM32.007 64.1705L29.9226 71.8284C29.7478 72.4707 28.9432 72.6829 28.4743 72.2102L22.8846 66.576L17.295 60.9418C16.826 60.4691 17.0446 59.6663 17.6884 59.4966L25.3626 57.4727L33.0368 55.449C33.6806 55.2793 34.2665 55.8699 34.0917 56.5123L32.007 64.1705ZM27.9856 61.8785C28.5211 61.8785 28.9553 61.4444 28.9553 60.9088C28.9553 60.3733 28.5211 59.9391 27.9856 59.9391C27.45 59.9391 27.0159 60.3733 27.0159 60.9088C27.0159 61.4444 27.45 61.8785 27.9856 61.8785ZM24.1954 63.6045C24.731 63.6045 25.1651 63.1703 25.1651 62.6348C25.1651 62.0992 24.731 61.6651 24.1954 61.6651C23.6599 61.6651 23.2257 62.0992 23.2257 62.6348C23.2257 63.1703 23.6599 63.6045 24.1954 63.6045ZM28.7659 65.6737C28.7659 66.2092 28.3317 66.6434 27.7962 66.6434C27.2607 66.6434 26.8265 66.2092 26.8265 65.6737C26.8265 65.1381 27.2607 64.704 27.7962 64.704C28.3317 64.704 28.7659 65.1381 28.7659 65.6737ZM63.2886 68.5661L63.1769 76.8622L63.1349 80H51.7529L47.4413 77.4338C46.8438 77.0775 46.8552 76.2081 47.4624 75.8681L54.7029 71.8156L61.9433 67.7647C62.5504 67.4247 63.2985 67.8698 63.2886 68.5661ZM60.2957 75.6123C60.2957 76.1479 59.8615 76.582 59.326 76.582C58.7904 76.582 58.3563 76.1479 58.3563 75.6123C58.3563 75.0768 58.7904 74.6427 59.326 74.6427C59.8615 74.6427 60.2957 75.0768 60.2957 75.6123ZM56.3711 77.0014C56.3711 77.5369 55.937 77.9711 55.4015 77.9711C54.8659 77.9711 54.4318 77.5369 54.4318 77.0014C54.4318 76.4659 54.8659 76.0317 55.4015 76.0317C55.937 76.0317 56.3711 76.4659 56.3711 77.0014Z" fill="#B4B8C6"/>
<path fill-rule="evenodd" clip-rule="evenodd" d="M42.7417 0H36.7417V31.1561C33.3145 27.0452 29.3328 22.3335 27.9625 20.9632C24.3736 17.3742 18.5392 17.3742 14.9502 20.9632C11.3613 24.5521 11.3613 30.3865 14.9502 33.9755C15.7006 34.7258 17.3779 35.5936 19.574 36.5H9.05652V42.5H32.7693L22.3552 52.9141C21.1588 54.1104 21.1588 56.0552 22.3552 57.2515C22.9564 57.8466 23.7417 58.1472 24.5269 58.1472C25.3122 58.1472 26.0975 57.8466 26.6926 57.2515L36.7417 47.2025V80H42.7417V46.9632L53.03 57.2515C53.6312 57.8466 54.4165 58.1472 55.2018 58.1472C55.9871 58.1472 56.7723 57.8466 57.3674 57.2515C58.5637 56.0552 58.5637 54.1104 57.3674 52.9141L46.9533 42.5H70.3899V36.5H60.1485C62.3447 35.5936 64.022 34.7258 64.7723 33.9755C68.3613 30.3865 68.3613 24.5521 64.7723 20.9632C61.1895 17.3742 55.3429 17.3742 51.7601 20.9632C50.3578 22.3655 46.2206 27.2672 42.7417 31.4432V0ZM21.4594 24.4049C20.6742 24.4049 19.8889 24.7055 19.2877 25.3006C18.0914 26.4969 18.0914 28.4417 19.2877 29.638C20.3122 30.4417 25.2815 32.1963 31.1282 34.0061C27.9257 30.1718 24.6864 26.362 23.6312 25.3006C23.03 24.7055 22.2447 24.4049 21.4594 24.4049ZM56.0975 25.3006C56.6987 24.6994 57.484 24.4049 58.2693 24.4049C59.0545 24.4049 59.8398 24.7055 60.4288 25.3006C61.6312 26.4969 61.6312 28.4417 60.5024 29.5706C59.4349 30.4172 54.4472 32.1902 48.6006 34C51.803 30.1718 55.0423 26.3558 56.0975 25.3006Z" fill="#FFA956"/>
<path fill-rule="evenodd" clip-rule="evenodd" d="M36.7416 0H42.7416V9.5H36.7416V0ZM9 36.5H14.3333V42.5H9V36.5ZM42.7416 74.2753H36.7416V80H42.7416V74.2753Z" fill="#F19B49"/>
</svg>
