<svg width="80" height="80" viewBox="0 0 80 80" fill="none" xmlns="http://www.w3.org/2000/svg">
<path d="M52.8813 8.13559V56.9492C52.8813 61.4423 49.2389 65.0847 44.7457 65.0847H17.6271C14.7196 65.083 12.0331 63.5331 10.5762 61.0169V61.0034C9.86265 59.7716 9.48836 58.3727 9.49147 56.9492V8.13559C9.49147 3.64243 13.1339 0 17.6271 0H44.7457C49.0006 0.00219923 52.5351 3.28256 52.8542 7.52542C52.8677 7.72881 52.8813 7.9322 52.8813 8.13559Z" fill="#EAEDF5"/>
<path fill-rule="evenodd" clip-rule="evenodd" d="M79.5819 30.644C77.6328 41.7035 67.0895 49.0905 56.0293 47.1457C55.389 47.0364 54.7553 46.8915 54.131 46.7118C50.9026 45.8263 47.9442 44.1537 45.5209 41.844L35.9886 43.6203L40.9242 35.2678C37.9189 28.4017 38.9347 20.4389 43.5675 14.5472C48.2004 8.65543 55.6989 5.79029 63.0802 7.0915C74.1396 9.04053 81.5266 19.5839 79.5819 30.644Z" fill="#FFA956"/>
<path d="M33.8983 54.2373C35.3942 54.2418 36.6057 55.4533 36.6102 56.9492C36.5991 58.4423 35.3914 59.65 33.8983 59.661H28.4746C26.9787 59.6566 25.7672 58.445 25.7627 56.9492C25.7738 55.4561 26.9814 54.2484 28.4746 54.2373H33.8983Z" fill="#C9CCD7"/>
<path fill-rule="evenodd" clip-rule="evenodd" d="M24.2712 52.4882C24.2732 50.6452 23.0361 49.0312 21.2559 48.5543C19.4757 48.0775 17.5974 48.8571 16.678 50.4543L10.5763 61.0034C9.86271 59.7716 9.48842 58.3727 9.49153 56.9492V35.2814C8.57791 35.408 7.79128 35.9903 7.4034 36.8271L1.24747 50.1831C0.423677 51.9589 -0.00207429 53.8933 7.59846e-06 55.8509V80L21.6949 79.9865V74.1017C21.692 72.6254 21.289 71.1774 20.5288 69.9119L17.6271 65.0848L23.7288 54.5221C24.0842 53.9031 24.2712 53.2019 24.2712 52.4882Z" fill="#FFC28B"/>
<path d="M23.0509 5.42368C23.0509 4.67482 23.658 4.06775 24.4068 4.06775C25.1557 4.06775 25.7628 4.67482 25.7628 5.42368C25.7628 6.17254 25.1557 6.77961 24.4068 6.77961C23.658 6.77961 23.0509 6.17254 23.0509 5.42368Z" fill="#C9CCD7"/>
<path d="M28.4746 5.42368C28.4746 4.67482 29.0817 4.06775 29.8305 4.06775H37.9661C38.715 4.06775 39.3221 4.67482 39.3221 5.42368C39.3221 6.17254 38.715 6.77961 37.9661 6.77961H29.8305C29.0817 6.77961 28.4746 6.17254 28.4746 5.42368Z" fill="#C9CCD7"/>
<rect x="49.0464" y="15.9323" width="22.0339" height="22.0339" rx="1.94915" fill="white"/>
<mask id="mask0" mask-type="alpha" maskUnits="userSpaceOnUse" x="49" y="15" width="23" height="23">
<rect x="49.0464" y="15.9323" width="22.0339" height="22.0339" rx="1.94915" fill="white"/>
</mask>
<g mask="url(#mask0)">
<path fill-rule="evenodd" clip-rule="evenodd" d="M52.6269 15.9323H49.0464V37.9661H52.6269V15.9323ZM71.0803 15.9323H67.4998V37.9661H71.0803V15.9323Z" fill="#EFEFEF"/>
<rect x="53.8663" y="21.303" width="12.3941" height="12.3941" rx="0.383739" fill="#455D75"/>
<mask id="mask1" mask-type="alpha" maskUnits="userSpaceOnUse" x="53" y="21" width="14" height="13">
<rect x="53.8663" y="21.303" width="12.3941" height="12.3941" rx="0.383739" fill="white"/>
</mask>
<g mask="url(#mask1)">
<path d="M62.1196 29.3591H57.9929V26.0612C57.9929 25.8291 58.2097 25.6409 58.477 25.6409H61.6355C61.9028 25.6409 62.1196 25.8291 62.1196 26.0612V29.3591Z" fill="#6186E4"/>
<path d="M57.993 29.3591H53.8663V26.0612C53.8663 25.8291 54.0831 25.6409 54.3504 25.6409H57.5089C57.7763 25.6409 57.993 25.8291 57.993 26.0612V29.3591H57.993Z" fill="#FDC74F"/>
<path d="M66.2485 29.3591H62.1218V26.0612C62.1218 25.8291 62.3386 25.6409 62.6059 25.6409H65.7644C66.0317 25.6409 66.2485 25.8291 66.2485 26.0612V29.3591Z" fill="#0CB9DF"/>
<path d="M62.1197 33.6971H57.993V30.3993C57.993 30.1671 58.2098 29.9789 58.4772 29.9789H61.6356C61.903 29.9789 62.1197 30.1671 62.1197 30.3993V33.6971Z" fill="#EA3939"/>
<path d="M57.993 33.6971H54.489C54.1451 33.6971 53.8663 33.455 53.8663 33.1564V30.3993C53.8663 30.1671 54.0831 29.9789 54.3504 29.9789H57.5089C57.7763 29.9789 57.993 30.1671 57.993 30.3993V33.6971Z" fill="#00C6C8"/>
<path d="M65.6365 33.6971H62.1218V30.3993C62.1218 30.1671 62.3386 29.9789 62.6059 29.9789H65.7751C66.0424 29.9789 66.2592 30.1671 66.2592 30.3993V33.1564C66.2591 33.455 65.9804 33.6971 65.6365 33.6971Z" fill="#FDC74F"/>
<path d="M62.1196 25.0212H57.9929V21.7234C57.9929 21.4912 58.2097 21.303 58.477 21.303H61.6355C61.9028 21.303 62.1196 21.4912 62.1196 21.7234V25.0212Z" fill="#FDC74F"/>
<path d="M57.993 25.0212H53.8663V21.7234C53.8663 21.4912 54.0831 21.303 54.3504 21.303H57.5089C57.7763 21.303 57.993 21.4912 57.993 21.7234V25.0212H57.993Z" fill="#0CB9DF"/>
<path d="M66.2485 25.0212H62.1218V21.7234C62.1218 21.4912 62.3386 21.303 62.6059 21.303H65.7644C66.0317 21.303 66.2485 21.4912 66.2485 21.7234V25.0212Z" fill="#6186E4"/>
<path d="M61.6111 25.6409H60.7892C61.07 25.6409 61.2977 25.8385 61.2977 26.0824V29.3591H62.1196V26.0824C62.1196 25.8385 61.8919 25.6409 61.6111 25.6409Z" fill="#467ED3"/>
<path d="M57.4845 25.6409H56.5414C56.8222 25.6409 57.0499 25.8385 57.0499 26.0824V29.3591H57.993V26.0824C57.993 25.8385 57.7653 25.6409 57.4845 25.6409Z" fill="#FCA629"/>
<path d="M65.74 25.6409H65.0726C65.3535 25.6409 65.5811 25.8385 65.5811 26.0824V29.3591H66.2485V26.0824C66.2485 25.8385 66.0208 25.6409 65.74 25.6409Z" fill="#0691AE"/>
<path d="M61.6101 29.9789H60.9507C61.2315 29.9789 61.4592 30.1766 61.4592 30.4204V33.6971H62.1186V30.4204C62.1186 30.1766 61.8909 29.9789 61.6101 29.9789Z" fill="#D82A36"/>
<path d="M57.4834 29.9789H56.824C57.1048 29.9789 57.3325 30.1766 57.3325 30.4204V33.6971H57.9919V30.4204C57.9919 30.1766 57.7642 29.9789 57.4834 29.9789Z" fill="#00AFAA"/>
<path d="M65.7461 29.9789H65.0808C65.3642 29.9789 65.5939 30.1766 65.5939 30.4204V33.1291C65.5939 33.4428 65.2984 33.6971 64.934 33.6971H65.5992C65.9637 33.6971 66.2592 33.4428 66.2592 33.1291V30.4204C66.2592 30.1766 66.0294 29.9789 65.7461 29.9789Z" fill="#FCA629"/>
<path d="M61.6111 21.303H60.7892C61.07 21.303 61.2977 21.5007 61.2977 21.7445V25.0212H62.1196V21.7445C62.1196 21.5007 61.8919 21.303 61.6111 21.303Z" fill="#FCA629"/>
<path d="M57.4845 21.303H56.5414C56.8222 21.303 57.0499 21.5007 57.0499 21.7445V25.0212H57.993V21.7445C57.993 21.5007 57.7653 21.303 57.4845 21.303Z" fill="#0691AE"/>
<path d="M65.74 21.303H65.0726C65.3535 21.303 65.5811 21.5007 65.5811 21.7445V25.0212H66.2485V21.7445C66.2485 21.5007 66.0208 21.303 65.74 21.303Z" fill="#467ED3"/>
<path fill-rule="evenodd" clip-rule="evenodd" d="M65.0279 24.0175C65.0279 23.2739 64.4229 22.6688 63.6792 22.6688C63.4887 22.6688 63.3342 22.8233 63.3342 23.0138C63.3342 23.2044 63.4887 23.3589 63.6792 23.3589L63.7179 23.36C64.0631 23.38 64.3379 23.6673 64.3379 24.0175C64.3379 24.3625 64.0712 24.6464 63.7331 24.6739L60.7575 24.6737C60.8662 24.4794 60.9282 24.2556 60.9282 24.0175C60.9282 23.2739 60.3231 22.6688 59.5794 22.6688C59.3889 22.6688 59.2344 22.8233 59.2344 23.0138C59.2344 23.2044 59.3889 23.3589 59.5794 23.3589L59.6181 23.36C59.9633 23.38 60.2381 23.6673 60.2381 24.0175C60.2381 24.3625 59.9715 24.6464 59.6334 24.6739L56.6308 24.6737C56.7395 24.4794 56.8015 24.2556 56.8015 24.0175C56.8015 23.2739 56.1965 22.6688 55.4528 22.6688C55.2623 22.6688 55.1078 22.8233 55.1078 23.0138C55.1078 23.2044 55.2623 23.3589 55.4528 23.3589L55.4915 23.36C55.8367 23.38 56.1115 23.6673 56.1115 24.0175C56.1115 24.3625 55.8448 24.6464 55.5067 24.6739L53.8666 24.6735V25.3635L55.4116 25.3637C55.4251 25.3653 55.4389 25.3662 55.4528 25.3662C55.4804 25.3662 55.5077 25.3653 55.5349 25.3637L59.5383 25.3637C59.5518 25.3653 59.5655 25.3662 59.5794 25.3662C59.607 25.3662 59.6343 25.3653 59.6615 25.3637L63.638 25.3637C63.6515 25.3653 63.6653 25.3662 63.6792 25.3662C63.7068 25.3662 63.7341 25.3653 63.7613 25.3637L66.2592 25.3635V24.6735L64.8572 24.6737C64.9659 24.4794 65.0279 24.2556 65.0279 24.0175ZM63.6792 27.0067C64.4229 27.0067 65.0279 27.6118 65.0279 28.3555C65.0279 28.5935 64.9659 28.8173 64.8572 29.0117L66.2592 29.0114V29.7014L63.7613 29.7016C63.7341 29.7032 63.7068 29.7041 63.6792 29.7041C63.6653 29.7041 63.6515 29.7032 63.638 29.7016L59.6615 29.7016C59.6343 29.7032 59.607 29.7041 59.5794 29.7041C59.5655 29.7041 59.5518 29.7032 59.5383 29.7016L55.5349 29.7016C55.5077 29.7032 55.4804 29.7041 55.4528 29.7041C55.4389 29.7041 55.4251 29.7032 55.4116 29.7016L53.8666 29.7014V29.0114L55.5067 29.0119C55.8448 28.9844 56.1115 28.7004 56.1115 28.3554C56.1115 27.9922 55.816 27.6968 55.4528 27.6968C55.2623 27.6968 55.1078 27.5423 55.1078 27.3518C55.1078 27.1612 55.2623 27.0067 55.4528 27.0067C56.1965 27.0067 56.8015 27.6118 56.8015 28.3555C56.8015 28.5935 56.7395 28.8173 56.6308 29.0117L59.6334 29.0119C59.9715 28.9843 60.2381 28.7004 60.2381 28.3554C60.2381 27.9922 59.9426 27.6968 59.5794 27.6968C59.3889 27.6968 59.2344 27.5423 59.2344 27.3518C59.2344 27.1612 59.3889 27.0067 59.5794 27.0067C60.3231 27.0067 60.9282 27.6118 60.9282 28.3555C60.9282 28.5935 60.8662 28.8173 60.7575 29.0117L63.7331 29.0119C64.0712 28.9844 64.3379 28.7004 64.3379 28.3554C64.3379 27.9922 64.0424 27.6968 63.6792 27.6968C63.4887 27.6968 63.3342 27.5423 63.3342 27.3518C63.3342 27.1612 63.4887 27.0067 63.6792 27.0067ZM63.6793 31.0153C64.4229 31.0153 65.028 31.6203 65.028 32.364C65.028 32.602 64.966 32.8259 64.8573 33.0202L66.2593 33.0199V33.71L63.7613 33.7101C63.7342 33.7118 63.7068 33.7126 63.6793 33.7126C63.6653 33.7126 63.6516 33.7118 63.6381 33.7102L59.6615 33.7101C59.6344 33.7118 59.607 33.7126 59.5795 33.7126C59.5656 33.7126 59.5518 33.7118 59.5383 33.7102L55.5349 33.7101C55.5078 33.7118 55.4804 33.7126 55.4529 33.7126C55.4389 33.7126 55.4252 33.7118 55.4117 33.7102L53.8666 33.71V33.0199L55.5068 33.0204C55.8448 32.9929 56.1115 32.7089 56.1115 32.3639C56.1115 32.0137 55.8367 31.7265 55.4915 31.7064L55.4529 31.7053C55.2623 31.7053 55.1079 31.5508 55.1079 31.3603C55.1079 31.1697 55.2623 31.0153 55.4529 31.0153C56.1966 31.0153 56.8016 31.6203 56.8016 32.364C56.8016 32.602 56.7396 32.8259 56.6309 33.0202L59.6335 33.0204C59.9715 32.9928 60.2381 32.7089 60.2381 32.3639C60.2381 32.0137 59.9634 31.7265 59.6181 31.7064L59.5795 31.7053C59.3889 31.7053 59.2345 31.5508 59.2345 31.3603C59.2345 31.1697 59.3889 31.0153 59.5795 31.0153C60.3232 31.0153 60.9282 31.6203 60.9282 32.364C60.9282 32.602 60.8662 32.8259 60.7575 33.0202L63.7332 33.0204C64.0712 32.9929 64.3379 32.7089 64.3379 32.3639C64.3379 32.0137 64.0631 31.7265 63.7179 31.7064L63.6793 31.7053C63.4887 31.7053 63.3342 31.5508 63.3342 31.3603C63.3342 31.1697 63.4887 31.0153 63.6793 31.0153Z" fill="#253A4C"/>
</g>
<rect x="56.3451" y="34.661" width="7.16102" height="2.47881" rx="0.194915" fill="#455D75"/>
<path fill-rule="evenodd" clip-rule="evenodd" d="M62.9553 34.661C63.2595 34.661 63.5061 34.9076 63.5061 35.2119V35.8729C63.5061 35.5808 63.2788 35.3418 62.9915 35.3232L62.9553 35.322H56.8959C56.6039 35.322 56.3649 35.5493 56.3463 35.8367L56.3451 35.8729V35.2119C56.3451 34.9076 56.5917 34.661 56.8959 34.661H62.9553Z" fill="#253A4C"/>
<path fill-rule="evenodd" clip-rule="evenodd" d="M53.8492 20.6634C54.0397 20.8532 54.4696 21.0733 55.0316 21.303H49.0464V23.0933H57.983L55.6964 25.3726C55.398 25.67 55.398 26.1536 55.6964 26.4511C55.8464 26.5991 56.0422 26.6738 56.2381 26.6738C56.434 26.6738 56.6299 26.5991 56.7784 26.4511L60.0633 23.1766L63.3483 26.4511C63.4983 26.5991 63.6942 26.6738 63.8901 26.6738C64.086 26.6738 64.2818 26.5991 64.4303 26.4511C64.7287 26.1536 64.7287 25.67 64.4303 25.3726L62.1437 23.0933H71.0803V21.303H65.095C65.6571 21.0733 66.087 20.8532 66.2775 20.6634C67.1727 19.771 67.1727 18.3203 66.2775 17.4279C65.3837 16.5354 63.9253 16.5354 63.0315 17.4279C62.576 17.8819 60.9635 19.8116 60.0633 20.8968C59.1632 19.8116 57.5507 17.8819 57.0951 17.4279C56.1999 16.5354 54.7445 16.5354 53.8492 17.4279C52.9539 18.3203 52.9539 19.771 53.8492 20.6634ZM55.4729 18.2836C55.2771 18.2836 55.0812 18.3584 54.9312 18.5064C54.6328 18.8038 54.6328 19.2874 54.9312 19.5849C55.1868 19.7847 56.4264 20.221 57.8848 20.671C57.086 19.7176 56.2779 18.7703 56.0147 18.5064C55.8647 18.3584 55.6688 18.2836 55.4729 18.2836ZM64.1135 18.5064C64.2635 18.3569 64.4594 18.2836 64.6553 18.2836C64.8512 18.2836 65.047 18.3584 65.194 18.5064C65.4939 18.8038 65.4939 19.2874 65.2123 19.5681C64.946 19.7786 63.7018 20.2195 62.2434 20.6695C63.0422 19.7176 63.8503 18.7687 64.1135 18.5064Z" fill="#FF3A3A"/>
</g>
</svg>
