<svg width="80" height="80" viewBox="0 0 80 80" fill="none" xmlns="http://www.w3.org/2000/svg">
<path fill-rule="evenodd" clip-rule="evenodd" d="M9.66666 0C5.98476 0 3 2.98477 3 6.66667V77.4965C3 78.3014 3.47483 79.0563 4.28267 79.5213C5.08433 79.9962 6.12033 80.1062 7.06383 79.8663L24.4908 75.1567L38.8653 79.8163C39.5992 80.0612 40.4193 80.0612 41.1532 79.8163L55.5215 75.1567L72.9485 79.8663C73.263 79.9513 73.5898 79.9963 73.9167 79.9963C74.558 79.9963 75.187 79.8363 75.7173 79.5213C76.5252 79.0563 77 78.3014 77 77.4965V6.66665C77 2.98476 74.0152 0 70.3333 0H9.66666Z" fill="#F4F6F8"/>
<path fill-rule="evenodd" clip-rule="evenodd" d="M37.4572 35.7299C38.1879 35.7299 38.7432 35.1752 38.7432 34.4745V24.2847C38.7432 23.5839 38.1879 23 37.4572 23H27.2568C26.5553 23 26 23.5839 26 24.2847V34.4745C26 35.1752 26.5553 35.7299 27.2568 35.7299H37.4572ZM52.714 35.7299C53.4447 35.7299 54 35.1752 54 34.4745V24.2847C54 23.5839 53.4447 23 52.714 23H42.5428C41.8121 23 41.2568 23.5839 41.2568 24.2847V34.4745C41.2568 35.1752 41.8121 35.7299 42.5428 35.7299H52.714ZM51.4572 33.1898H43.7996V25.5401H51.4572V33.1898ZM36.2004 33.1898H28.5136V25.5401H36.2004V33.1898ZM49.2359 30.9708V27.7883H46.0209V30.9708H49.2359ZM33.9499 30.9708V27.7883H30.7641V30.9708H33.9499ZM37.4572 51C38.1879 51 38.7432 50.4161 38.7432 49.7153V39.5255C38.7432 38.8248 38.1879 38.2701 37.4572 38.2701H27.2568C26.5553 38.2701 26 38.8248 26 39.5255V49.7153C26 50.4161 26.5553 51 27.2568 51H37.4572ZM53.62 41.8029V38.6204H50.4342V41.8029H53.62ZM44.8225 41.8029V38.6204H41.6367V41.8029H44.8225ZM36.2004 48.4599H28.5136V40.8102H36.2004V48.4599ZM33.9499 46.2117V43.0292H30.7641V46.2117H33.9499ZM49.2067 46.2117V43.0292H46.0209V46.2117H49.2067ZM44.8225 50.6204V47.438H41.6367V50.6204H44.8225ZM53.62 50.6204V47.438H50.4342V50.6204H53.62Z" fill="#768BA0"/>
<path fill-rule="evenodd" clip-rule="evenodd" d="M18.5599 26.6992C18.5599 28.2011 17.7669 29.0229 16.2658 29.0229C14.8214 29.0229 14 28.2011 14 26.6992V19.7564C14 13.9188 16.9739 11 22.8932 11H29.8039C31.305 11 32.1264 11.8218 32.1264 13.267C32.1264 14.7406 31.305 15.5624 29.8039 15.5624H22.9499C20.1176 15.5624 18.5599 17.0643 18.5599 20.0114V26.6992ZM66 26.6992C66 28.2011 65.207 29.0229 63.7059 29.0229C62.2614 29.0229 61.4401 28.2011 61.4401 26.6992V20.0114C61.4401 17.0643 59.8257 15.5624 57.0218 15.5624H50.1678C48.695 15.5624 47.8736 14.7406 47.8736 13.267C47.8736 11.8218 48.695 11 50.1678 11H57.1068C63.0261 11 66 13.9188 66 19.7564V26.6992ZM57.1068 63C63.0261 63 66 60.0529 66 54.2153V47.3008C66 45.7989 65.1786 44.9771 63.7059 44.9771C62.2331 44.9771 61.4401 45.7989 61.4401 47.3008V53.9886C61.4401 56.9357 59.8257 58.4376 57.0218 58.4376H50.1678C48.695 58.4376 47.8736 59.2594 47.8736 60.733C47.8736 62.1782 48.695 63 50.1678 63H57.1068ZM32.1264 60.733C32.1264 62.1782 31.305 63 29.8039 63H22.8932C16.9739 63 14 60.0812 14 54.2153V47.3008C14 45.7989 14.793 44.9771 16.2658 44.9771C17.7386 44.9771 18.5599 45.7989 18.5599 47.3008V53.9886C18.5599 56.9357 20.1176 58.4376 22.9499 58.4376H29.8039C31.305 58.4376 32.1264 59.2594 32.1264 60.733Z" fill="#FFA956"/>
</svg>
