<svg width="80" height="80" viewBox="0 0 80 80" fill="none" xmlns="http://www.w3.org/2000/svg">
<path opacity="0.715286" fill-rule="evenodd" clip-rule="evenodd" d="M71.2695 72.4941C59.0119 82.502 20.738 82.502 8.7305 72.4941C-3.52715 62.4863 -2.27639 19.7029 8.7305 8.44409C19.7374 -2.8147 60.2626 -2.8147 71.2695 8.44409C82.2764 19.7029 83.5272 62.4865 71.2695 72.4941Z" fill="#E3E7EB"/>
<path opacity="0.715286" fill-rule="evenodd" clip-rule="evenodd" d="M5.36286 68.4187C16.7833 68.1201 28.9353 63.461 39.8527 54.4414C56.7259 40.3722 64.9898 19.9497 62.2688 3.26854C46.0041 -2.41286 17.6581 -0.687675 8.73062 8.44409C-1.14026 18.5409 -3.16492 53.9908 5.36286 68.4187Z" fill="#F4F6F8"/>
<path fill-rule="evenodd" clip-rule="evenodd" d="M58.3793 34.9127C58.7759 34.9127 59.1207 34.7602 59.4138 34.4553C59.7069 34.1503 59.8534 33.7915 59.8534 33.3789V32.1411C59.8534 31.7285 59.7069 31.3697 59.4138 31.0647C59.1207 30.7598 58.7759 30.6073 58.3793 30.6073H53.1552C53.1379 30.6073 53.1293 30.5983 53.1293 30.5804C53.1293 30.5624 53.1379 30.5445 53.1552 30.5265C55.7586 28.2482 57.5043 26.4453 58.3922 25.1178C59.2802 23.7903 59.7241 22.391 59.7241 20.92C59.7241 19.0722 59.1422 17.6236 57.9784 16.5742C56.8147 15.5247 55.1552 15 53 15C51.4828 15 49.8793 15.2153 48.1897 15.6458C47.7759 15.7535 47.4397 15.9912 47.181 16.3589C46.9224 16.7267 46.7931 17.1438 46.7931 17.6102V19.3862C46.7931 19.745 46.9397 20.0275 47.2328 20.2338C47.5259 20.4401 47.8448 20.4805 48.1897 20.3549C49.8448 19.745 51.1897 19.44 52.2241 19.44C53.6897 19.44 54.4224 20.1127 54.4224 21.4582C54.4224 22.5166 53.9914 23.5885 53.1293 24.6738C52.2672 25.7592 50.4138 27.432 47.569 29.6924C46.7931 30.3202 46.4052 31.1365 46.4052 32.1411V33.3789C46.4052 33.7915 46.5517 34.1503 46.8448 34.4553C47.1379 34.7602 47.4828 34.9127 47.8793 34.9127H58.3793ZM30.8879 34.9127C31.2845 34.9127 31.6293 34.7602 31.9224 34.4553C32.2155 34.1503 32.3621 33.7915 32.3621 33.3789V16.8029C32.3621 16.3903 32.2155 16.0315 31.9224 15.7265C31.6293 15.4216 31.2845 15.2691 30.8879 15.2691H28.4052C27.4052 15.2691 26.5086 15.5561 25.7155 16.1302L23.2328 17.9062C22.4224 18.4802 22.0172 19.2785 22.0172 20.3011V23.1535C22.0172 23.4764 22.1552 23.7141 22.431 23.8665C22.7069 24.019 22.9741 24.0056 23.2328 23.8262L26.9052 21.1891H26.931V33.3789C26.931 33.7915 27.0776 34.1503 27.3707 34.4553C27.6638 34.7602 28.0086 34.9127 28.4052 34.9127H30.8879ZM32.9569 63.3451C31.7155 64.4484 29.9224 65 27.5776 65C26.0948 65 24.5948 64.8206 23.0776 64.4618C22.6466 64.3721 22.2974 64.1434 22.0302 63.7756C21.7629 63.4079 21.6293 62.9908 21.6293 62.5244V61.0175C21.6293 60.6407 21.7759 60.3492 22.069 60.1429C22.3621 59.9366 22.681 59.8873 23.0259 59.9949C24.5431 60.4972 25.8879 60.7484 27.0603 60.7484C27.9397 60.7484 28.6121 60.5645 29.0776 60.1967C29.5431 59.829 29.7759 59.3222 29.7759 58.6764C29.7759 57.9229 29.4957 57.4027 28.9353 57.1156C28.375 56.8286 27.25 56.6761 25.5603 56.6582C25.1638 56.6582 24.819 56.5057 24.5259 56.2007C24.2328 55.8958 24.0862 55.537 24.0862 55.1244V54.6938C24.0862 53.6713 24.4655 52.8371 25.2241 52.1913L28.4569 49.4735C28.4741 49.4555 28.4828 49.4376 28.4828 49.4196C28.4828 49.4017 28.4741 49.3927 28.4569 49.3927H22.9741C22.5776 49.3927 22.2328 49.2402 21.9397 48.9353C21.6466 48.6303 21.5 48.2715 21.5 47.8589V46.6211C21.5 46.2085 21.6466 45.8497 21.9397 45.5447C22.2328 45.2398 22.5776 45.0873 22.9741 45.0873H33.0862C33.4828 45.0873 33.8276 45.2398 34.1207 45.5447C34.4138 45.8497 34.5603 46.2085 34.5603 46.6211V47.8589C34.5603 48.8994 34.1724 49.7156 33.3966 50.3076L29.8017 53.0793C29.7845 53.0972 29.7759 53.1152 29.7759 53.1331C29.7759 53.151 29.7845 53.16 29.8017 53.16H30.0345C31.4483 53.16 32.5991 53.6488 33.4871 54.6265C34.375 55.6042 34.819 56.9093 34.819 58.5418C34.819 60.6407 34.1983 62.2418 32.9569 63.3451ZM56.4397 64.7309C56.8362 64.7309 57.181 64.5784 57.4741 64.2735C57.7672 63.9685 57.9138 63.6097 57.9138 63.1971V61.4749C57.9138 61.3135 57.9828 61.2327 58.1207 61.2327H59.0259C59.4224 61.2327 59.7672 61.0802 60.0603 60.7753C60.3534 60.4703 60.5 60.1115 60.5 59.6989V58.5956C60.5 58.183 60.3534 57.8242 60.0603 57.5193C59.7672 57.2143 59.4224 57.0618 59.0259 57.0618H58.1207C57.9828 57.0618 57.9138 56.9811 57.9138 56.8196V46.6211C57.9138 46.2085 57.7672 45.8497 57.4741 45.5447C57.181 45.2398 56.8362 45.0873 56.4397 45.0873H54.4741C53.4914 45.0873 52.7155 45.4999 52.1466 46.3251L45.5776 55.824C45.0086 56.6672 44.7241 57.591 44.7241 58.5956V59.6989C44.7241 60.1115 44.8707 60.4703 45.1638 60.7753C45.4569 61.0802 45.8017 61.2327 46.1983 61.2327H52.7672C52.9224 61.2327 53 61.3135 53 61.4749V63.1971C53 63.6097 53.1466 63.9685 53.4397 64.2735C53.7328 64.5784 54.0776 64.7309 54.4741 64.7309H56.4397ZM49.1466 57.0618H52.7672C52.9224 57.0618 53 56.9811 53 56.8196V51.3033C53 51.2853 52.9914 51.2764 52.9741 51.2764C52.9397 51.2764 52.9224 51.2853 52.9224 51.3033L49.1466 56.9811L49.1207 57.008V57.0349C49.1207 57.0528 49.1293 57.0618 49.1466 57.0618Z" fill="#FFA956"/>
</svg>
